#!OML:ASF H:\Martial Arts Walks\Project 1\Capture day 1\Session 1\male.ASF
:FULLY-SPECIFIED
:DEGREES
1210
root 0.576368 12.6316 36.3246 16.019 -26.1117 -15.6279
lowerback 8.18738 1.21699 4.35973
upperback -3.16819 2.40009 3.91022
thorax -7.95547 1.05329 1.32941
lowerneck -3.61965 6.0954 1.11711
upperneck 4.79844 7.94061 2.56999
head 2.05477 4.04146 0.844782
rclavicle 3.84151e-014 1.98785e-014
rhumerus -78.1203 21.0849 -97.2435
rradius 108.084
rwrist -59.9997
rhand 6.26189 -19.9039
rfingers 7.12502
rthumb 31.5728 -47.1945
lclavicle 3.84151e-014 1.98785e-014
lhumerus 55.3601 17.0957 82.3934
lradius 15.6624
lwrist -66.6454
lhand -26.9749 37.8672
lfingers 7.12502
lthumb -0.395814 67.8465
rfemur 13.0197 -6.45505 9.01034
rtibia 31.8581
rfoot -22.7342 -30.9775
rtoes -30.5242
lfemur -80.2144 32.8939 -10.3037
ltibia 84.6012
lfoot -10.3362 -8.82446
ltoes -1.74305
1211
root 0.579763 12.6395 36.3165 15.8959 -26.1847 -15.4231
lowerback 8.27025 1.21864 4.18534
upperback -3.13857 2.38391 3.86317
thorax -7.97565 1.05312 1.37763
lowerneck -3.60357 6.11087 1.12854
upperneck 4.7073 7.96493 2.52927
head 2.02394 4.05193 0.827739
rclavicle -3.62782e-015 1.74931e-014
rhumerus -78.0593 21.1007 -97.238
rradius 108.057
rwrist -59.953
rhand 6.29224 -19.9834
rfingers 7.12502
rthumb 31.6017 -47.2684
lclavicle -3.62782e-015 1.74931e-014
lhumerus 55.3636 17.1031 82.3171
lradius 15.7052
lwrist -66.5449
lhand -27.0372 38.0018
lfingers 7.12502
lthumb -0.456029 67.981
rfemur 12.855 -6.39528 8.82355
rtibia 32.1582
rfoot -22.8242 -30.9792
rtoes -30.3913
lfemur -80.1608 32.7249 -10.543
ltibia 84.539
lfoot -10.1092 -8.38015
ltoes -1.73554
1212
root 0.58357 12.6487 36.3074 15.7689 -26.2664 -15.2058
lowerback 8.34549 1.22684 4.01153
upperback -3.10473 2.37492 3.80814
thorax -7.98638 1.05637 1.41618
lowerneck -3.57722 6.12177 1.13449
upperneck 4.60199 7.98368 2.49263
head 1.98633 4.05949 0.811905
rclavicle 2.6339e-014 2.78299e-014
rhumerus -77.9892 21.112 -97.2331
rradius 108.024
rwrist -59.9244
rhand 6.31413 -20.0807
rfingers 7.12502
rthumb 31.6226 -47.3616
lclavicle 2.6339e-014 2.78299e-014
lhumerus 55.3647 17.095 82.2372
lradius 15.7514
lwrist -66.4288
lhand -27.1255 38.1594
lfingers 7.12502
lthumb -0.541331 68.1385
rfemur 12.6518 -6.33346 8.62247
rtibia 32.5214
rfoot -22.9413 -30.9609
rtoes -30.2243
lfemur -80.0977 32.5491 -10.7941
ltibia 84.4618
lfoot -9.86863 -7.91816
ltoes -1.7223
1213
root 0.58781 12.6594 36.2962 15.6297 -26.3606 -14.9704
lowerback 8.43159 1.24307 3.82424
upperback -3.06837 2.375 3.74614
thorax -8.00087 1.0645 1.45336
lowerneck -3.53511 6.13083 1.12347
upperneck 4.4803 8.00067 2.47377
head 1.93918 4.06613 0.803189
rclavicle 9.0944e-015 1.11319e-014
rhumerus -77.9122 21.1212 -97.2281
rradius 107.984
rwrist -59.9171
rhand 6.33545 -20.1985
rfingers 7.12502
rthumb 31.6429 -47.4754
lclavicle 9.0944e-015 1.11319e-014
lhumerus 55.3578 17.0637 82.141
lradius 15.802
lwrist -66.2967
lhand -27.2316 38.3386
lfingers 7.12502
lthumb -0.643763 68.3174
rfemur 12.3988 -6.26664 8.40148
rtibia 32.9724
rfoot -23.0969 -30.9072
rtoes -30.0348
lfemur -80.0072 32.3632 -11.0445
ltibia 84.3583
lfoot -9.61728 -7.45726
ltoes -1.78456
1214
root 0.592512 12.671 36.2826 15.485 -26.4681 -14.7252
lowerback 8.52244 1.26541 3.6282
upperback -3.02795 2.38175 3.68065
thorax -8.01397 1.07625 1.49069
lowerneck -3.48733 6.1385 1.107
upperneck 4.34584 8.01614 2.46067
head 1.8865 4.07195 0.796515
rclavicle 3.29983e-014 3.57812e-015
rhumerus -77.8251 21.1396 -97.2253
rradius 107.936
rwrist -59.9263
rhand 6.36887 -20.3339
rfingers 7.12502
rthumb 31.6747 -47.6045
lclavicle 3.29983e-014 3.57812e-015
lhumerus 55.3367 17.0094 82.0094
lradius 15.8624
lwrist -66.1434
lhand -27.3335 38.514
lfingers 7.12502
lthumb -0.742213 68.4925
rfemur 12.0862 -6.19447 8.16292
rtibia 33.5269
rfoot -23.2729 -30.8112
rtoes -29.8555
lfemur -79.8887 32.1708 -11.2745
ltibia 84.2286
lfoot -9.36024 -7.02146
ltoes -1.92688
1215
root 0.597711 12.6839 36.266 15.3117 -26.5942 -14.4423
lowerback 8.64152 1.29841 3.39542
upperback -2.98908 2.39941 3.6065
thorax -8.04627 1.09474 1.53723
lowerneck -3.43091 6.13785 1.08907
upperneck 4.20995 8.02083 2.44511
head 1.83208 4.07228 0.788671
rclavicle -6.80341e-014 -4.17448e-014
rhumerus -77.7431 21.1548 -97.2215
rradius 107.882
rwrist -59.9422
rhand 6.40335 -20.5076
rfingers 7.12502
rthumb 31.7076 -47.7718
lclavicle -6.80341e-014 -4.17448e-014
lhumerus 55.282 16.9089 81.8238
lradius 15.9367
lwrist -65.9446
lhand -27.4184 38.681
lfingers 7.12502
lthumb -0.82419 68.6592
rfemur 11.7155 -6.10071 7.88248
rtibia 34.1971
rfoot -23.4418 -30.6772
rtoes -29.6833
lfemur -79.7192 31.9623 -11.4985
ltibia 84.0628
lfoot -9.10175 -6.61489
ltoes -2.19568
1216
root 0.603368 12.6975 36.2462 15.1267 -26.7276 -14.1419
lowerback 8.77169 1.33062 3.14308
upperback -2.94751 2.41352 3.53169
thorax -8.08296 1.11244 1.59439
lowerneck -3.3806 6.139 1.07879
upperneck 4.07708 8.02771 2.42003
head 1.78055 4.07367 0.777072
rclavicle -5.93869e-014 4.05521e-014
rhumerus -77.6562 21.1937 -97.2277
rradius 107.826
rwrist -59.9594
rhand 6.43356 -20.7042
rfingers 7.12502
rthumb 31.7364 -47.9627
lclavicle -5.93869e-014 4.05521e-014
lhumerus 55.1815 16.7697 81.5351
lradius 16.0352
lwrist -65.6531
lhand -27.4683 38.8254
lfingers 7.12502
lthumb -0.872375 68.8034
rfemur 11.282 -5.97551 7.58635
rtibia 34.9787
rfoot -23.5739 -30.5122
rtoes -29.5492
lfemur -79.5127 31.7346 -11.6961
ltibia 83.8623
lfoot -8.8468 -6.2433
ltoes -2.64678
1217
root 0.609337 12.7122 36.2228 14.9272 -26.8668 -13.8273
lowerback 8.91508 1.36678 2.87941
upperback -2.9039 2.43132 3.45531
thorax -8.12573 1.13241 1.65541
lowerneck -3.32664 6.13617 1.0702
upperneck 3.94617 8.02937 2.38976
head 1.72945 4.07238 0.763422
rclavicle 1.0138e-014 3.49861e-014
rhumerus -77.5699 21.2395 -97.2377
rradius 107.773
rwrist -59.9736
rhand 6.4477 -20.9053
rfingers 7.12502
rthumb 31.7498 -48.1611
lclavicle 1.0138e-014 3.49861e-014
lhumerus 55.0404 16.584 81.165
lradius 16.1588
lwrist -65.2769
lhand -27.479 38.9585
lfingers 7.12502
lthumb -0.88269 68.9364
rfemur 10.792 -5.7826 7.29463
rtibia 35.8581
rfoot -23.6394 -30.3459
rtoes -29.4412
lfemur -79.2646 31.4868 -11.8636
ltibia 83.6208
lfoot -8.58515 -5.90521
ltoes -3.16244
